<?xml version="1.0" encoding="UTF-8" standalone="no"?>
<svg xmlns="http://www.w3.org/2000/svg" version="1.2" baseProfile="tiny" height="1390" width="1000"><g stroke-linejoin="round" stroke-linecap="round" fill="none" stroke="black"><path stroke-width="16" d="M363,823c0,0 0,0 0,0 "/><path stroke-width="13" d="M363,823c1,-52 -2,-52 3,-104 "/><path stroke-width="8" d="M366,719c11,-115 13,-115 30,-229 "/><path stroke-width="9" d="M396,490c1,-6 2,-13 5,-10 9,5 15,11 19,26 "/><path stroke-width="8" d="M420,506c8,35 6,37 4,73 -2,49 -4,49 -11,98 -8,53 -8,53 -18,105 -10,48 -12,48 -22,96 -7,33 -6,33 -13,67 -4,17 -4,17 -8,33 "/><path stroke-width="9" d="M352,978c-1,4 0,6 -2,9 "/><path stroke-width="13" d="M350,987c-1,0 -2,0 -2,-1 "/><path stroke-width="12" d="M348,986c-2,-31 -4,-32 -2,-63 "/><path stroke-width="8" d="M346,923c2,-44 4,-44 8,-88 5,-45 2,-45 9,-90 6,-32 7,-32 17,-64 7,-22 9,-21 18,-43 6,-12 6,-11 12,-23 "/><path stroke-width="10" d="M410,615c1,-2 2,-4 2,-5 "/><path stroke-width="14" d="M412,610c1,0 0,2 0,2 "/><path stroke-width="12" d="M412,612c-9,27 -9,27 -18,53 "/><path stroke-width="8" d="M394,665c-15,44 -18,43 -30,87 -11,40 -10,40 -16,81 -4,31 -5,31 -4,62 0,15 0,17 7,28 5,8 9,11 19,9 26,-5 30,-6 52,-23 37,-30 37,-33 65,-72 29,-38 29,-40 49,-83 16,-34 17,-36 23,-72 3,-15 3,-19 -5,-31 -8,-12 -12,-16 -27,-16 -45,0 -49,0 -94,16 -51,18 -51,23 -98,53 -42,26 -44,26 -79,60 -29,27 -30,29 -50,63 -10,17 -14,21 -10,39 4,17 9,24 27,31 44,15 51,19 98,13 50,-7 52,-15 97,-40 45,-26 45,-28 84,-62 26,-23 29,-23 46,-52 8,-14 12,-21 5,-33 -8,-16 -15,-22 -35,-24 -57,-7 -61,-6 -120,5 -75,14 -75,19 -147,45 -62,21 -63,20 -121,48 -31,15 -29,19 -59,37 -9,6 -9,5 -19,10 "/><path stroke-width="11" d="M52,844c0,0 -2,1 -1,1 19,-7 20,-6 40,-14 "/><path stroke-width="8" d="M91,831c67,-28 67,-29 133,-58 75,-33 74,-35 150,-68 77,-33 77,-35 155,-64 62,-23 62,-24 126,-41 41,-11 41,-9 83,-15 10,-2 14,-1 20,0 "/><path stroke-width="10" d="M758,585c2,1 -2,2 -5,4 "/></g></svg>