<?xml version="1.0" encoding="UTF-8" standalone="no"?>
<svg xmlns="http://www.w3.org/2000/svg" version="1.2" baseProfile="tiny" height="1530" width="1000"><g stroke-linejoin="round" stroke-linecap="round" fill="none" stroke="black"><path stroke-width="16" d="M611,929c0,0 0,0 0,0 "/><path stroke-width="13" d="M611,929c-5,-30 -7,-30 -9,-61 "/><path stroke-width="8" d="M602,868c-3,-48 -3,-49 -1,-97 2,-63 3,-64 8,-126 6,-62 10,-61 14,-123 2,-19 1,-20 -1,-39 "/><path stroke-width="9" d="M622,483c-1,-3 -2,-3 -4,-5 "/><path stroke-width="13" d="M618,478c-1,-1 -2,-1 -2,-1 "/><path stroke-width="12" d="M616,477c0,14 -1,16 2,30 "/><path stroke-width="8" d="M618,507c8,50 9,50 20,100 13,65 14,65 27,131 11,61 14,61 21,123 4,42 4,43 2,86 -2,27 0,29 -11,54 -7,17 -8,20 -24,28 -24,13 -28,15 -56,14 -32,-1 -34,-5 -63,-19 -24,-12 -24,-14 -44,-31 -11,-10 -12,-10 -19,-22 -5,-8 -6,-9 -6,-18 0,-8 -1,-10 5,-17 14,-19 14,-20 34,-34 34,-24 34,-26 72,-42 33,-14 35,-13 71,-17 23,-4 24,-1 47,1 14,2 14,3 28,6 "/><path stroke-width="9" d="M722,850c5,2 8,1 10,5 3,8 3,11 -2,20 "/><path stroke-width="8" d="M730,875c-9,18 -11,19 -25,34 -24,26 -26,23 -50,48 -27,27 -26,28 -52,56 -19,19 -18,20 -37,39 -9,8 -9,8 -19,15 "/><path stroke-width="10" d="M547,1067c-3,2 -5,4 -6,3 "/><path stroke-width="13" d="M541,1070c-1,-1 0,-3 1,-5 "/><path stroke-width="11" d="M542,1065c19,-27 19,-27 39,-53 "/><path stroke-width="8" d="M581,1012c42,-53 39,-55 84,-105 49,-53 48,-55 103,-101 39,-33 41,-31 85,-58 11,-6 12,-4 24,-8 "/></g></svg>