<?xml version="1.0" encoding="UTF-8" standalone="no"?>
<svg xmlns="http://www.w3.org/2000/svg" version="1.2" baseProfile="tiny" height="1390" width="1000"><g stroke-linejoin="round" stroke-linecap="round" fill="none" stroke="black"><path stroke-width="16" d="M466,1018c0,0 0,0 0,0 "/><path stroke-width="13" d="M466,1018c3,-19 2,-19 6,-38 "/><path stroke-width="8" d="M472,980c15,-74 21,-73 31,-148 15,-114 13,-115 19,-230 1,-28 0,-28 -4,-55 -1,-12 -2,-12 -6,-23 "/><path stroke-width="10" d="M512,524c-1,-3 0,-3 -2,-5 "/><path stroke-width="14" d="M510,519c-1,-1 -2,-2 -2,-1 "/><path stroke-width="12" d="M508,518c-12,43 -16,44 -22,90 "/><path stroke-width="8" d="M486,608c-8,67 -4,68 -6,137 -2,67 2,67 -1,134 -3,45 -1,46 -10,89 -6,29 -7,29 -19,56 -4,10 -5,10 -12,18 "/><path stroke-width="10" d="M438,1042c-1,1 -4,2 -4,0 -8,-26 -10,-27 -11,-55 "/><path stroke-width="8" d="M423,987c-3,-53 1,-53 1,-106 0,-69 1,-69 -1,-137 -2,-42 -2,-42 -6,-84 -1,-14 -2,-13 -5,-27 "/><path stroke-width="9" d="M412,633c-1,-6 0,-7 -2,-13 "/><path stroke-width="12" d="M410,620c-1,-2 -1,-2 -2,-3 "/><path stroke-width="15" d="M408,617c-1,-1 -2,-2 -2,-1 "/><path stroke-width="12" d="M406,616c-16,39 -17,40 -30,80 "/><path stroke-width="8" d="M376,696c-10,34 -9,34 -18,68 -7,28 -5,29 -14,57 -9,24 -10,25 -23,47 -13,21 -12,23 -29,40 -17,16 -18,18 -41,27 -20,9 -23,11 -44,8 -16,-2 -17,-6 -29,-17 -12,-11 -15,-12 -20,-26 -4,-11 -4,-15 3,-26 14,-22 16,-26 40,-38 46,-24 48,-24 99,-33 53,-11 55,-9 110,-7 40,1 40,4 80,11 22,4 22,5 43,11 9,2 9,3 17,4 "/><path stroke-width="11" d="M550,822c2,1 5,1 4,0 -19,-7 -21,-12 -43,-15 "/><path stroke-width="8" d="M511,807c-49,-7 -52,-13 -100,-5 -60,11 -60,17 -116,43 -49,23 -48,26 -94,55 -22,15 -20,17 -41,33 -5,4 -6,3 -11,8 "/><path stroke-width="12" d="M149,941c0,0 0,1 0,1 53,-19 56,-16 108,-41 "/><path stroke-width="8" d="M257,901c74,-35 73,-38 144,-81 67,-40 63,-48 131,-85 56,-30 56,-34 117,-48 50,-12 54,-12 105,-5 36,5 34,14 68,28 "/></g></svg>