<?xml version="1.0" encoding="UTF-8" standalone="no"?>
<svg xmlns="http://www.w3.org/2000/svg" version="1.2" baseProfile="tiny" height="1390" width="1000"><g stroke-linejoin="round" stroke-linecap="round" fill="none" stroke="black"><path stroke-width="16" d="M508,985c0,0 0,0 0,0 "/><path stroke-width="13" d="M508,985c1,-5 1,-5 1,-9 "/><path stroke-width="8" d="M509,976c8,-122 10,-122 16,-244 4,-94 1,-94 4,-188 1,-43 0,-53 4,-85 "/><path stroke-width="9" d="M533,459c1,-5 3,5 5,11 11,39 12,39 22,79 "/><path stroke-width="8" d="M560,549c12,45 11,45 22,90 10,40 11,40 22,80 8,31 9,31 15,61 4,22 3,22 4,44 0,13 0,14 -2,26 "/><path stroke-width="9" d="M621,850c-1,5 -1,8 -5,9 "/><path stroke-width="10" d="M616,859c-4,2 -7,2 -12,-2 "/><path stroke-width="9" d="M604,857c-24,-17 -25,-18 -47,-39 "/><path stroke-width="8" d="M557,818c-23,-22 -21,-24 -44,-48 -9,-10 -9,-10 -19,-20 "/><path stroke-width="9" d="M494,750c-3,-3 -3,-3 -7,-5 "/><path stroke-width="12" d="M487,745c-2,-1 -4,-2 -5,0 "/><path stroke-width="11" d="M482,745c-5,9 -5,10 -8,21 "/><path stroke-width="8" d="M474,766c-4,16 -4,17 -5,34 0,10 -3,13 3,20 8,11 11,12 25,16 26,9 28,8 56,9 29,1 29,0 58,-5 17,-2 17,-3 34,-9 10,-3 10,-4 19,-8 "/><path stroke-width="10" d="M664,823c2,-2 5,-3 4,-3 "/><path stroke-width="12" d="M668,820c-1,-1 -4,0 -8,1 "/><path stroke-width="10" d="M660,821c-35,8 -35,6 -69,17 "/><path stroke-width="8" d="M591,838c-41,13 -41,13 -81,30 -35,15 -36,14 -68,32 -28,15 -27,17 -52,35 -15,10 -16,10 -30,22 -7,5 -6,6 -13,13 "/><path stroke-width="11" d="M347,970c-1,1 -1,2 -3,3 "/><path stroke-width="15" d="M344,973c-1,0 -2,0 -1,0 "/><path stroke-width="14" d="M343,973c3,-3 5,-2 9,-6 "/><path stroke-width="10" d="M352,967c27,-24 28,-23 52,-49 "/><path stroke-width="8" d="M404,918c44,-46 44,-46 84,-95 44,-53 43,-53 84,-107 37,-49 35,-51 72,-99 34,-43 34,-42 71,-82 27,-29 27,-30 57,-56 16,-15 17,-15 35,-26 6,-3 6,-1 13,-2 "/></g></svg>