<?xml version="1.0" encoding="UTF-8" standalone="no"?>
<svg xmlns="http://www.w3.org/2000/svg" version="1.2" baseProfile="tiny" height="1390" width="1000"><g stroke-linejoin="round" stroke-linecap="round" fill="none" stroke="black"><path stroke-width="16" d="M421,975c0,0 0,0 0,0 "/><path stroke-width="13" d="M421,975c6,-30 4,-30 12,-60 "/><path stroke-width="8" d="M433,915c12,-50 16,-49 28,-99 14,-61 12,-62 22,-123 2,-8 1,-8 2,-17 "/><path stroke-width="10" d="M485,676c0,-3 0,-3 0,-7 "/><path stroke-width="13" d="M485,669c0,-1 0,-1 0,-2 "/><path stroke-width="16" d="M485,667c0,-1 0,-2 0,-1 "/><path stroke-width="13" d="M485,666c-1,7 -1,9 -2,18 "/><path stroke-width="9" d="M483,684c-4,39 -1,40 -8,78 "/><path stroke-width="8" d="M475,762c-8,42 -9,42 -23,83 -10,29 -12,28 -24,55 -8,16 -5,18 -14,32 -9,14 -10,13 -21,25 -10,9 -10,10 -22,17 -10,6 -11,11 -21,9 -15,-4 -20,-6 -28,-20 -18,-32 -17,-35 -24,-73 -6,-30 -3,-31 -2,-61 1,-22 0,-22 6,-43 3,-10 3,-12 11,-19 11,-10 12,-10 26,-14 17,-6 18,-6 35,-7 15,0 16,1 30,4 17,5 17,5 33,13 11,5 12,5 20,14 9,10 10,11 12,24 2,13 2,15 -3,27 -3,10 -5,10 -14,17 -10,9 -12,8 -24,14 -13,6 -13,6 -27,11 -8,3 -8,3 -16,4 "/><path stroke-width="10" d="M385,874c-3,1 -5,1 -7,0 "/><path stroke-width="13" d="M378,874c-1,-1 0,-3 1,-5 "/><path stroke-width="11" d="M379,869c13,-17 13,-17 28,-33 "/><path stroke-width="8" d="M407,836c27,-26 28,-26 58,-50 23,-19 23,-18 47,-36 18,-12 18,-11 35,-23 10,-7 10,-6 20,-13 "/><path stroke-width="10" d="M567,714c2,-2 3,-2 4,-4 "/><path stroke-width="14" d="M571,710c1,-1 1,-2 0,-2 "/><path stroke-width="12" d="M571,708c-11,2 -12,2 -23,6 "/><path stroke-width="8" d="M548,714c-46,15 -46,14 -91,32 -37,14 -38,13 -73,32 -33,19 -35,17 -62,44 -24,24 -23,27 -39,58 -10,19 -12,21 -12,41 0,14 0,20 11,29 30,22 34,29 72,33 46,6 50,0 96,-14 51,-15 51,-18 99,-43 41,-22 43,-22 79,-52 29,-24 30,-26 51,-58 8,-13 13,-18 8,-30 -5,-14 -12,-19 -29,-21 -55,-7 -58,-5 -115,2 -62,8 -62,12 -123,29 -59,16 -59,17 -117,38 -56,21 -56,22 -110,45 -29,12 -29,13 -57,26 -9,4 -8,5 -17,10 "/><path stroke-width="11" d="M119,915c-2,0 -4,1 -3,1 "/><path stroke-width="14" d="M116,916c0,1 2,1 5,1 "/><path stroke-width="11" d="M121,917c46,-7 47,-6 92,-16 "/><path stroke-width="8" d="M213,901c67,-16 67,-17 133,-36 74,-22 73,-25 148,-46 77,-22 77,-21 155,-40 67,-16 67,-17 134,-31 35,-7 36,-5 71,-12 17,-3 17,-4 34,-7 "/><path stroke-width="9" d="M888,729c5,-1 10,-3 9,-2 -1,1 -7,2 -14,4 "/></g></svg>