<?xml version="1.0" encoding="UTF-8" standalone="no"?>
<svg xmlns="http://www.w3.org/2000/svg" version="1.2" baseProfile="tiny" height="1390" width="1000"><g stroke-linejoin="round" stroke-linecap="round" fill="none" stroke="black"><path stroke-width="16" d="M641,1017c0,0 0,0 0,0 "/><path stroke-width="13" d="M641,1017c-17,-33 -29,-30 -34,-66 "/><path stroke-width="8" d="M607,951c-17,-123 -10,-127 -10,-253 1,-118 7,-118 11,-236 1,-26 1,-26 0,-53 -1,-12 -2,-12 -5,-25 "/><path stroke-width="10" d="M603,384c0,-3 -1,-3 -1,-7 "/><path stroke-width="14" d="M602,377c0,-1 0,-2 0,-1 "/><path stroke-width="12" d="M602,376c3,8 5,9 6,18 "/><path stroke-width="8" d="M608,394c6,42 4,42 8,84 5,57 5,57 11,114 6,56 8,56 11,111 4,50 5,51 3,101 -1,40 -2,40 -10,79 -6,30 -7,30 -18,59 -9,21 -9,22 -23,41 -7,10 -7,12 -18,18 -12,6 -14,8 -27,5 -18,-4 -22,-5 -34,-20 -30,-39 -31,-42 -48,-88 -16,-40 -9,-42 -18,-85 -4,-18 -6,-18 -9,-37 -1,-10 0,-10 0,-20 "/><path stroke-width="10" d="M436,756c0,-4 -1,-5 1,-8 "/><path stroke-width="12" d="M437,748c2,-2 4,-4 7,-2 "/><path stroke-width="10" d="M444,746c14,6 17,6 27,18 "/><path stroke-width="8" d="M471,764c26,29 28,30 46,65 15,29 13,30 22,62 6,22 6,23 8,46 1,8 1,8 -2,16 "/><path stroke-width="9" d="M545,953c-3,7 -4,8 -10,12 -10,6 -12,8 -23,7 "/><path stroke-width="8" d="M512,972c-28,-2 -30,-3 -57,-13 -43,-16 -41,-21 -83,-41 -22,-10 -23,-8 -45,-18 -10,-4 -10,-3 -19,-9 "/><path stroke-width="9" d="M308,891c-4,-2 -5,-3 -6,-7 -1,-13 -5,-17 3,-28 "/><path stroke-width="8" d="M305,856c20,-32 21,-35 52,-58 52,-39 54,-39 113,-66 59,-27 61,-22 123,-43 42,-14 42,-13 85,-26 16,-5 16,-5 32,-10 "/><path stroke-width="9" d="M710,653c3,-1 5,-1 7,-2 "/><path stroke-width="13" d="M717,651c0,0 -2,-1 -3,0 "/><path stroke-width="11" d="M714,651c-47,27 -48,27 -94,55 "/><path stroke-width="8" d="M620,706c-55,34 -58,30 -109,69 -54,41 -55,42 -101,91 -50,53 -49,54 -91,113 -30,42 -27,44 -53,89 -11,18 -11,18 -22,36 "/><path stroke-width="9" d="M244,1104c-1,3 -3,4 -3,6 "/><path stroke-width="13" d="M241,1110c-1,0 1,-1 2,-2 "/><path stroke-width="11" d="M243,1108c31,-25 34,-22 61,-51 "/><path stroke-width="8" d="M304,1057c53,-55 52,-57 100,-117 50,-64 49,-65 96,-132 48,-68 46,-69 93,-138 44,-66 43,-67 89,-132 35,-48 34,-48 72,-93 28,-35 27,-36 61,-66 27,-23 29,-23 60,-40 23,-12 24,-9 48,-18 "/></g></svg>